<?xml version="1.0" encoding="UTF-8" standalone="no"?>
<svg xmlns:dc="http://purl.org/dc/elements/1.1/" xmlns:cc="http://creativecommons.org/ns#" xmlns:rdf="http://www.w3.org/1999/02/22-rdf-syntax-ns#" xmlns:svg="http://www.w3.org/2000/svg" xmlns="http://www.w3.org/2000/svg" xmlns:sodipodi="http://sodipodi.sourceforge.net/DTD/sodipodi-0.dtd" xmlns:inkscape="http://www.inkscape.org/namespaces/inkscape" id="svg5" version="1.1" inkscape:version="1.0.1 (3bc2e813f5, 2020-09-07)" width="1920" height="1080" viewBox="0 0 1920 1080" sodipodi:docname="Artwork.svg">
    <metadata id="metadata9">
        <rdf:RDF>
            <cc:Work rdf:about="">
                <dc:format>image/svg+xml</dc:format>
                <dc:type rdf:resource="http://purl.org/dc/dcmitype/StillImage" />
                <dc:title />
            </cc:Work>
        </rdf:RDF>
    </metadata>
    <defs id="defs7">
        <mask id="mask1331" maskUnits="userSpaceOnUse">
            <path id="path1333" style="fill:#ffffff;stroke:none;stroke-opacity:1;stroke-width:1px;stroke-linecap:butt;stroke-linejoin:miter" d="m 700,520 h 40 v -240 h -40 z" />
        </mask>
        <mask id="mask1335" maskUnits="userSpaceOnUse">
            <path id="path1337" style="fill:#ffffff" d="m 460,280 h 40 v 60 c 0,29 14,40 40,40 h 60 v 40 h -60 c -51.25,0 -80,-25.5 -80,-80 z" sodipodi:nodetypes="ccccccccc" />
        </mask>
    </defs>
    <sodipodi:namedview id="base" pagecolor="#444444" bordercolor="#000000" borderopacity="1" inkscape:pageopacity="0" inkscape:pageshadow="4" inkscape:zoom="0.25" inkscape:cx="1605.6" inkscape:cy="514.46469" inkscape:document-units="px" inkscape:current-layer="layer1" showgrid="true" objecttolerance="5" gridtolerance="10000" guidetolerance="5" inkscape:snap-bbox="true" inkscape:bbox-nodes="true" inkscape:snap-page="true" inkscape:snap-text-baseline="true" inkscape:snap-center="true" inkscape:snap-nodes="true" inkscape:window-maximized="1" inkscape:document-rotation="0" inkscape:bbox-paths="false" inkscape:object-paths="true" inkscape:snap-global="true" showguides="false">
        <inkscape:grid type="xygrid" id="grid834" empspacing="20" />
    </sodipodi:namedview>
    <g inkscape:label="Layer 1" id="layer1" inkscape:groupmode="layer">
        <path id="path1645" style="fill:#130c0c" d="m 0,-1400 h 1920 v 1080 h -1920 z" inkscape:export-xdpi="96" inkscape:export-ydpi="96" />
        <g id="g2511" inkscape:export-xdpi="96" inkscape:export-ydpi="96">
            <g id="g2445" style="fill:#895197" transform="translate(0,-1380)">
                <rect id="rect2429" width="80" height="780" x="440" y="280" rx="0" ry="0" />
                <rect id="rect2431" width="80" height="780" x="680" y="280" rx="0" ry="0" />
                <rect id="rect2433" width="80" height="780" x="920" y="280" rx="0" ry="0" />
                <rect id="rect2435" width="80" height="780" x="1160" y="280" rx="0" ry="0" />
                <rect id="rect2437" width="80" height="780" x="1400" y="280" rx="0" ry="0" />
                <rect id="rect2439" width="80" height="1200" transform="rotate(90)" x="360" y="-1560" rx="0" ry="0" />
                <rect id="rect2441" width="80" height="1200" transform="rotate(90)" x="600" y="-1560" rx="0" ry="0" />
                <rect id="rect2443" width="80" height="1200" transform="rotate(90)" x="840" y="-1560" rx="0" ry="0" />
            </g>
            <g id="g2491">
                <path id="path2447" style="fill:#895197" d="m 580,-1300 h -200 v 200 h 80 v -19.5 l -60,-0.5 v -160 h 160 v 160 l -60,1 v 19 h 80 z" sodipodi:nodetypes="ccccccccccccc" />
                <path id="path2449" style="fill:#130c0c;stroke-width:1px" d="m 400,-1280 h 160 v 160 h -60 v 20 h -40 v -20 h -60 z" sodipodi:nodetypes="ccccccccc" />
                <path id="path2451" style="fill:#895197" d="m 820,-1300 h -200 v 200 h 80 v -19.5 l -60,-0.5 v -160 h 160 v 160 l -60,1 v 19 h 80 z" sodipodi:nodetypes="ccccccccccccc" />
                <path id="path2453" style="fill:#130c0c;stroke-width:1px" d="m 640,-1280 h 160 v 160 h -60 v 20 h -40 v -20 h -60 z" sodipodi:nodetypes="ccccccccc" />
                <path id="path2455" style="fill:#895197" d="m 1060,-1300 h -200 v 200 h 80 v -19.5 l -60,-0.5 v -160 h 160 v 160 l -60,1 v 19 h 80 z" sodipodi:nodetypes="ccccccccccccc" />
                <path id="path2457" style="fill:#130c0c;stroke-width:1px" d="m 880,-1280 h 160 v 160 h -60 v 20 h -40 v -20 h -60 z" sodipodi:nodetypes="ccccccccc" />
                <path id="path2459" style="fill:#895197" d="m 1300,-1300 h -200 v 200 h 80 v -19.5 l -60,-0.5 v -160 h 160 v 160 l -60,1 v 19 h 80 z" sodipodi:nodetypes="ccccccccccccc" />
                <path id="path2461" style="fill:#130c0c;stroke-width:1px" d="m 1120,-1280 h 160 v 160 h -60 v 20 h -40 v -20 h -60 z" sodipodi:nodetypes="ccccccccc" />
                <path id="path2463" style="fill:#895197" d="m 1540,-1300 h -200 v 200 h 80 v -19.5 l -60,-0.5 v -160 h 160 v 160 l -60,1 v 19 h 80 z" sodipodi:nodetypes="ccccccccccccc" />
                <path id="path2465" style="fill:#130c0c;stroke-width:1px" d="m 1360,-1280 h 160 v 160 h -60 v 20 h -40 v -20 h -60 z" sodipodi:nodetypes="ccccccccc" />
                <path id="path2467" style="fill:#895197" d="m 1760,-880 v -200 h -200 v 80 h 19.5 l 0.5,-60 h 160 v 160 h -160 l -1,-60 h -19 v 80 z" sodipodi:nodetypes="ccccccccccccc" />
                <path id="path2469" style="fill:#130c0c;stroke-width:1px" d="m 1740,-1060 v 160 h -160 v -60 h -20 v -40 h 20 v -60 z" sodipodi:nodetypes="ccccccccc" />
                <path id="path2471" style="fill:#895197" d="m 1760,-640 v -200 h -200 v 80 h 19.5 l 0.5,-60 h 160 v 160 h -160 l -1,-60 h -19 v 80 z" sodipodi:nodetypes="ccccccccccccc" />
                <path id="path2473" style="fill:#130c0c;stroke-width:1px" d="m 1740,-820 v 160 h -160 v -60 h -20 v -40 h 20 v -60 z" sodipodi:nodetypes="ccccccccc" />
                <path id="path2475" style="fill:#895197" d="m 1760,-400 v -200 h -200 v 80 h 19.5 l 0.5,-60 h 160 v 160 h -160 l -1,-60 h -19 v 80 z" sodipodi:nodetypes="ccccccccccccc" />
                <path id="path2477" style="fill:#130c0c;stroke-width:1px" d="m 1740,-580 v 160 h -160 v -60 h -20 v -40 h 20 v -60 z" sodipodi:nodetypes="ccccccccc" />
                <path id="path2479" style="fill:#895197" d="m 160,-880 v -200 h 200 v 80 h -19.5 l -0.5,-60 h -160 v 160 h 160 l 1,-60 h 19 v 80 z" sodipodi:nodetypes="ccccccccccccc" />
                <path id="path2481" style="fill:#130c0c;stroke-width:1px" d="m 180,-1060 v 160 h 160 v -60 h 20 v -40 h -20 v -60 z" sodipodi:nodetypes="ccccccccc" />
                <path id="path2483" style="fill:#895197" d="m 160,-640 v -200 h 200 v 80 h -19.5 l -0.5,-60 h -160 v 160 h 160 l 1,-60 h 19 v 80 z" sodipodi:nodetypes="ccccccccccccc" />
                <path id="path2485" style="fill:#130c0c;stroke-width:1px" d="m 180,-820 v 160 h 160 v -60 h 20 v -40 h -20 v -60 z" sodipodi:nodetypes="ccccccccc" />
                <path id="path2487" style="fill:#895197" d="m 160,-400 v -200 h 200 v 80 h -19.5 l -0.5,-60 h -160 v 160 h 160 l 1,-60 h 19 v 80 z" sodipodi:nodetypes="ccccccccccccc" />
                <path id="path2489" style="fill:#130c0c;stroke-width:1px" d="m 180,-580 v 160 h 160 v -60 h 20 v -40 h -20 v -60 z" sodipodi:nodetypes="ccccccccc" />
            </g>
            <g id="g2509" style="fill:#130c0c" transform="translate(0,-1380)">
                <rect id="rect2493" width="40" height="780" x="460" y="280" rx="0" ry="0" />
                <rect id="rect2495" width="40" height="780" x="700" y="280" rx="1.5258789e-05" ry="1.5258788e-05" />
                <rect id="rect2497" width="40" height="780" x="940" y="280" rx="1.5258789e-05" ry="1.5258788e-05" />
                <rect id="rect2499" width="40" height="780" x="1180" y="280" rx="0" ry="0" />
                <rect id="rect2501" width="40" height="780" x="1420" y="280" rx="1.5258789e-05" ry="1.5258788e-05" />
                <rect id="rect2503" width="40" height="1200" transform="rotate(90)" x="860" y="-1560" rx="0" ry="0" />
                <rect id="rect2505" width="40" height="1200" transform="rotate(90)" x="620" y="-1560" rx="0" ry="0" />
                <rect id="rect2507" width="40" height="1200" transform="rotate(90)" x="380" y="-1560" rx="0" ry="0" />
            </g>
        </g>
        <path id="path1038" style="fill:#130c0c" d="m 0,1400 h 1920 v 1080 h -1920 z" inkscape:export-xdpi="96" inkscape:export-ydpi="96" />
        <g id="g2371" transform="translate(0,2800)" inkscape:export-xdpi="96" inkscape:export-ydpi="96">
            <g id="g2305" style="fill:#895197" transform="translate(0,-1380)">
                <rect id="rect2289" width="80" height="780" x="440" y="280" rx="0" ry="0" />
                <rect id="rect2291" width="80" height="780" x="680" y="280" rx="0" ry="0" />
                <rect id="rect2293" width="80" height="780" x="920" y="280" rx="0" ry="0" />
                <rect id="rect2295" width="80" height="780" x="1160" y="280" rx="0" ry="0" />
                <rect id="rect2297" width="80" height="780" x="1400" y="280" rx="0" ry="0" />
                <rect id="rect2299" width="80" height="1200" transform="rotate(90)" x="360" y="-1560" rx="0" ry="0" />
                <rect id="rect2301" width="80" height="1200" transform="rotate(90)" x="600" y="-1560" rx="0" ry="0" />
                <rect id="rect2303" width="80" height="1200" transform="rotate(90)" x="840" y="-1560" rx="0" ry="0" />
            </g>
            <g id="g2351">
                <path id="path2307" style="fill:#895197" d="m 580,-1300 h -200 v 200 h 80 v -19.5 l -60,-0.5 v -160 h 160 v 160 l -60,1 v 19 h 80 z" sodipodi:nodetypes="ccccccccccccc" />
                <path id="path2309" style="fill:#130c0c;stroke-width:1px" d="m 400,-1280 h 160 v 160 h -60 v 20 h -40 v -20 h -60 z" sodipodi:nodetypes="ccccccccc" />
                <path id="path2311" style="fill:#895197" d="m 820,-1300 h -200 v 200 h 80 v -19.5 l -60,-0.5 v -160 h 160 v 160 l -60,1 v 19 h 80 z" sodipodi:nodetypes="ccccccccccccc" />
                <path id="path2313" style="fill:#130c0c;stroke-width:1px" d="m 640,-1280 h 160 v 160 h -60 v 20 h -40 v -20 h -60 z" sodipodi:nodetypes="ccccccccc" />
                <path id="path2315" style="fill:#895197" d="m 1060,-1300 h -200 v 200 h 80 v -19.5 l -60,-0.5 v -160 h 160 v 160 l -60,1 v 19 h 80 z" sodipodi:nodetypes="ccccccccccccc" />
                <path id="path2317" style="fill:#130c0c;stroke-width:1px" d="m 880,-1280 h 160 v 160 h -60 v 20 h -40 v -20 h -60 z" sodipodi:nodetypes="ccccccccc" />
                <path id="path2319" style="fill:#895197" d="m 1300,-1300 h -200 v 200 h 80 v -19.5 l -60,-0.5 v -160 h 160 v 160 l -60,1 v 19 h 80 z" sodipodi:nodetypes="ccccccccccccc" />
                <path id="path2321" style="fill:#130c0c;stroke-width:1px" d="m 1120,-1280 h 160 v 160 h -60 v 20 h -40 v -20 h -60 z" sodipodi:nodetypes="ccccccccc" />
                <path id="path2323" style="fill:#895197" d="m 1540,-1300 h -200 v 200 h 80 v -19.5 l -60,-0.5 v -160 h 160 v 160 l -60,1 v 19 h 80 z" sodipodi:nodetypes="ccccccccccccc" />
                <path id="path2325" style="fill:#130c0c;stroke-width:1px" d="m 1360,-1280 h 160 v 160 h -60 v 20 h -40 v -20 h -60 z" sodipodi:nodetypes="ccccccccc" />
                <path id="path2327" style="fill:#895197" d="m 1760,-880 v -200 h -200 v 80 h 19.5 l 0.5,-60 h 160 v 160 h -160 l -1,-60 h -19 v 80 z" sodipodi:nodetypes="ccccccccccccc" />
                <path id="path2329" style="fill:#130c0c;stroke-width:1px" d="m 1740,-1060 v 160 h -160 v -60 h -20 v -40 h 20 v -60 z" sodipodi:nodetypes="ccccccccc" />
                <path id="path2331" style="fill:#895197" d="m 1760,-640 v -200 h -200 v 80 h 19.5 l 0.5,-60 h 160 v 160 h -160 l -1,-60 h -19 v 80 z" sodipodi:nodetypes="ccccccccccccc" />
                <path id="path2333" style="fill:#130c0c;stroke-width:1px" d="m 1740,-820 v 160 h -160 v -60 h -20 v -40 h 20 v -60 z" sodipodi:nodetypes="ccccccccc" />
                <path id="path2335" style="fill:#895197" d="m 1760,-400 v -200 h -200 v 80 h 19.5 l 0.5,-60 h 160 v 160 h -160 l -1,-60 h -19 v 80 z" sodipodi:nodetypes="ccccccccccccc" />
                <path id="path2337" style="fill:#130c0c;stroke-width:1px" d="m 1740,-580 v 160 h -160 v -60 h -20 v -40 h 20 v -60 z" sodipodi:nodetypes="ccccccccc" />
                <path id="path2339" style="fill:#895197" d="m 160,-880 v -200 h 200 v 80 h -19.5 l -0.5,-60 h -160 v 160 h 160 l 1,-60 h 19 v 80 z" sodipodi:nodetypes="ccccccccccccc" />
                <path id="path2341" style="fill:#130c0c;stroke-width:1px" d="m 180,-1060 v 160 h 160 v -60 h 20 v -40 h -20 v -60 z" sodipodi:nodetypes="ccccccccc" />
                <path id="path2343" style="fill:#895197" d="m 160,-640 v -200 h 200 v 80 h -19.5 l -0.5,-60 h -160 v 160 h 160 l 1,-60 h 19 v 80 z" sodipodi:nodetypes="ccccccccccccc" />
                <path id="path2345" style="fill:#130c0c;stroke-width:1px" d="m 180,-820 v 160 h 160 v -60 h 20 v -40 h -20 v -60 z" sodipodi:nodetypes="ccccccccc" />
                <path id="path2347" style="fill:#895197" d="m 160,-400 v -200 h 200 v 80 h -19.5 l -0.5,-60 h -160 v 160 h 160 l 1,-60 h 19 v 80 z" sodipodi:nodetypes="ccccccccccccc" />
                <path id="path2349" style="fill:#130c0c;stroke-width:1px" d="m 180,-580 v 160 h 160 v -60 h 20 v -40 h -20 v -60 z" sodipodi:nodetypes="ccccccccc" />
            </g>
            <g id="g2369" style="fill:#130c0c" transform="translate(0,-1380)">
                <rect id="rect2353" width="40" height="780" x="460" y="280" rx="0" ry="0" />
                <rect id="rect2355" width="40" height="780" x="700" y="280" rx="1.5258789e-05" ry="1.5258788e-05" />
                <rect id="rect2357" width="40" height="780" x="940" y="280" rx="1.5258789e-05" ry="1.5258788e-05" />
                <rect id="rect2359" width="40" height="780" x="1180" y="280" rx="0" ry="0" />
                <rect id="rect2361" width="40" height="780" x="1420" y="280" rx="1.5258789e-05" ry="1.5258788e-05" />
                <rect id="rect2363" width="40" height="1200" transform="rotate(90)" x="860" y="-1560" rx="0" ry="0" />
                <rect id="rect2365" width="40" height="1200" transform="rotate(90)" x="620" y="-1560" rx="0" ry="0" />
                <rect id="rect2367" width="40" height="1200" transform="rotate(90)" x="380" y="-1560" rx="0" ry="0" />
            </g>
        </g>
        <path id="path1492" style="fill:#130c0c" d="m 0,0 h 1920 v 1080 h -1920 z" inkscape:export-xdpi="96" inkscape:export-ydpi="96" />
        <g id="g962" transform="translate(0,-1400)" inkscape:export-xdpi="96" inkscape:export-ydpi="96">
            <path id="path1940" style="fill:#895197" d="m 560,420 a 80,80 0 0 1 -80,80 80,80 0 0 1 -80,-80 80,80 0 0 1 80,-80 80,80 0 0 1 80,80 z" />
            <path id="path1942" style="fill:#c89bd4;stroke-width:0.999997" d="m 540,420 a 60,60 0 0 1 -60,60 60,60 0 0 1 -60,-60 60,60 0 0 1 60,-60 60,60 0 0 1 60,60 z" />
            <path id="path1944" style="fill:#130c0c" transform="translate(0,20)" d="m 560,400 a 80,80 0 0 1 -80,80 80,80 0 0 1 -80,-80 80,80 0 0 1 80,-80 80,80 0 0 1 80,80 z" mask="url(#mask1335)" />
        </g>
        <g id="g967" transform="translate(0,-1400)" inkscape:export-xdpi="96" inkscape:export-ydpi="96">
            <path id="path1948" style="fill:#895197" d="m 640,420 a 80,80 0 0 1 80,-80 80,80 0 0 1 80,80 80,80 0 0 1 -80,80 80,80 0 0 1 -80,-80 z" />
            <path id="path1950" style="fill:#c89bd4;stroke-width:0.999997" d="m 660,420 a 60,60 0 0 1 60,-60 60,60 0 0 1 60,60 60,60 0 0 1 -60,60 60,60 0 0 1 -60,-60 z" />
            <path id="path1952" style="fill:#130c0c" transform="rotate(180,600,410)" d="m 560,400 a 80,80 0 0 1 -80,80 80,80 0 0 1 -80,-80 80,80 0 0 1 80,-80 80,80 0 0 1 80,80 z" mask="url(#mask1335)" />
        </g>
        <g id="g972" transform="translate(0,-1400)" inkscape:export-xdpi="96" inkscape:export-ydpi="96">
            <path id="path1956" style="fill:#895197" d="m 960,500 a 80,80 0 0 1 -80,-80 80,80 0 0 1 80,-80 80,80 0 0 1 80,80 80,80 0 0 1 -80,80 z" />
            <path id="path1958" style="fill:#c89bd4;stroke-width:0.999997" d="m 960,480 a 60,60 0 0 1 -60,-60 60,60 0 0 1 60,-60 60,60 0 0 1 60,60 60,60 0 0 1 -60,60 z" />
            <path id="path1960" style="fill:#130c0c" transform="rotate(90,830,530)" d="m 800,400 a 80,80 0 0 1 -80,80 80,80 0 0 1 -80,-80 80,80 0 0 1 80,-80 80,80 0 0 1 80,80 z" mask="url(#mask1331)" />
        </g>
        <g id="g977" transform="translate(0,-1400)" inkscape:export-xdpi="96" inkscape:export-ydpi="96">
            <path id="path1964" style="fill:#895197" d="m 1200,500 a 80,80 0 0 1 -80,-80 80,80 0 0 1 80,-80 80,80 0 0 1 80,80 80,80 0 0 1 -80,80 z" />
            <path id="path1966" style="fill:#c89bd4;stroke-width:0.999997" d="m 1200,480 a 60,60 0 0 1 -60,-60 60,60 0 0 1 60,-60 60,60 0 0 1 60,60 60,60 0 0 1 -60,60 z" />
            <path id="path1968" style="fill:#130c0c" transform="rotate(90,830,770)" d="m 560,400 a 80,80 0 0 1 -80,80 80,80 0 0 1 -80,-80 80,80 0 0 1 80,-80 80,80 0 0 1 80,80 z" mask="url(#mask1335)" />
        </g>
        <g id="g982" transform="translate(0,-1400)" inkscape:export-xdpi="96" inkscape:export-ydpi="96">
            <path id="path1972" style="fill:#895197" d="m 1440,340 a 80,80 0 0 1 80,80 80,80 0 0 1 -80,80 80,80 0 0 1 -80,-80 80,80 0 0 1 80,-80 z" />
            <path id="path1974" style="fill:#c89bd4;stroke-width:0.999997" d="m 1440,360 a 60,60 0 0 1 60,60 60,60 0 0 1 -60,60 60,60 0 0 1 -60,-60 60,60 0 0 1 60,-60 z" />
            <path id="path1976" style="fill:#130c0c" transform="rotate(-90,970,-70)" d="m 560,400 a 80,80 0 0 1 -80,80 80,80 0 0 1 -80,-80 80,80 0 0 1 80,-80 80,80 0 0 1 80,80 z" mask="url(#mask1335)" />
        </g>
        <g id="g1012" transform="translate(0,-1400)" inkscape:export-xdpi="96" inkscape:export-ydpi="96">
            <path id="path1980" style="fill:#895197" d="m 560,660 a 80,80 0 0 1 -80,80 80,80 0 0 1 -80,-80 80,80 0 0 1 80,-80 80,80 0 0 1 80,80 z" />
            <path id="path1982" style="fill:#c89bd4;stroke-width:0.999997" d="m 540,660 a 60,60 0 0 1 -60,60 60,60 0 0 1 -60,-60 60,60 0 0 1 60,-60 60,60 0 0 1 60,60 z" />
            <path id="path1984" style="fill:#130c0c" transform="translate(-240,260)" d="m 800,400 a 80,80 0 0 1 -80,80 80,80 0 0 1 -80,-80 80,80 0 0 1 80,-80 80,80 0 0 1 80,80 z" mask="url(#mask1331)" />
        </g>
        <g id="g1032" transform="translate(0,-1400)" inkscape:export-xdpi="96" inkscape:export-ydpi="96">
            <path id="path1755" style="fill:#895197" d="m 800,660 a 80,80 0 0 1 -80,80 80,80 0 0 1 -80,-80 80,80 0 0 1 80,-80 80,80 0 0 1 80,80 z" />
            <path id="path1757" style="fill:#c89bd4;stroke-width:0.999997" d="m 780,660 a 60,60 0 0 1 -60,60 60,60 0 0 1 -60,-60 60,60 0 0 1 60,-60 60,60 0 0 1 60,60 z" />
            <path id="path1759" style="fill:#130c0c" transform="translate(0,260)" d="m 800,400 a 80,80 0 0 1 -80,80 80,80 0 0 1 -80,-80 80,80 0 0 1 80,-80 80,80 0 0 1 80,80 z" mask="url(#mask1331)" />
        </g>
        <g id="g1027" transform="translate(0,-1400)" inkscape:export-xdpi="96" inkscape:export-ydpi="96">
            <path id="path1763" style="fill:#895197" d="m 960.00016,740.00004 a 80,80 0 0 1 -80,-80 80,80 0 0 1 80,-80 80,80 0 0 1 80.00004,80 80,80 0 0 1 -80.00004,80 z" />
            <path id="path1765" style="fill:#c89bd4;stroke-width:0.999997" d="m 960.00016,720.00004 a 60,60 0 0 1 -60,-60 60,60 0 0 1 60,-60 60,60 0 0 1 60.00004,60 60,60 0 0 1 -60.00004,60 z" />
            <path id="path1767" style="fill:#130c0c" transform="rotate(90,710.00006,650.0001)" d="m 800,400 a 80,80 0 0 1 -80,80 80,80 0 0 1 -80,-80 80,80 0 0 1 80,-80 80,80 0 0 1 80,80 z" mask="url(#mask1331)" />
        </g>
        <g id="g1022" transform="translate(0,-1400)" inkscape:export-xdpi="96" inkscape:export-ydpi="96">
            <path id="path1771" style="fill:#895197" d="m 1280,660 a 80,80 0 0 1 -80,80 80,80 0 0 1 -80,-80 80,80 0 0 1 80,-80 80,80 0 0 1 80,80 z" />
            <path id="path1773" style="fill:#c89bd4;stroke-width:0.999997" d="m 1260,660 a 60,60 0 0 1 -60,60 60,60 0 0 1 -60,-60 60,60 0 0 1 60,-60 60,60 0 0 1 60,60 z" />
            <path id="path1775" style="fill:#130c0c" transform="translate(480,260)" d="m 800,400 a 80,80 0 0 1 -80,80 80,80 0 0 1 -80,-80 80,80 0 0 1 80,-80 80,80 0 0 1 80,80 z" mask="url(#mask1331)" />
        </g>
        <g id="g1017" transform="translate(0,-1400)" inkscape:export-xdpi="96" inkscape:export-ydpi="96">
            <path id="path1779" style="fill:#895197" d="m 1520,660 a 80,80 0 0 1 -80,80 80,80 0 0 1 -80,-80 80,80 0 0 1 80,-80 80,80 0 0 1 80,80 z" />
            <path id="path1781" style="fill:#c89bd4;stroke-width:0.999997" d="m 1500,660 a 60,60 0 0 1 -60,60 60,60 0 0 1 -60,-60 60,60 0 0 1 60,-60 60,60 0 0 1 60,60 z" />
            <path id="path1783" style="fill:#130c0c" transform="translate(720,260)" d="m 800,400 a 80,80 0 0 1 -80,80 80,80 0 0 1 -80,-80 80,80 0 0 1 80,-80 80,80 0 0 1 80,80 z" mask="url(#mask1331)" />
        </g>
        <g id="g1007" transform="translate(0,-1400)" inkscape:export-xdpi="96" inkscape:export-ydpi="96">
            <path id="path1795" style="fill:#895197" d="m 480,980 a 80,80 0 0 1 -80,-80 80,80 0 0 1 80,-80 80,80 0 0 1 80,80 80,80 0 0 1 -80,80 z" />
            <path id="path1797" style="fill:#c89bd4;stroke-width:0.999997" d="m 480,960 a 60,60 0 0 1 -60,-60 60,60 0 0 1 60,-60 60,60 0 0 1 60,60 60,60 0 0 1 -60,60 z" />
            <path id="path1799" style="fill:#130c0c" transform="rotate(90,350,530)" d="m 800,400 a 80,80 0 0 1 -80,80 80,80 0 0 1 -80,-80 80,80 0 0 1 80,-80 80,80 0 0 1 80,80 z" mask="url(#mask1331)" />
        </g>
        <g id="g997" transform="translate(0,-1400)" inkscape:export-xdpi="96" inkscape:export-ydpi="96">
            <path id="path1803" style="fill:#895197" d="m 960,980 a 80,80 0 0 1 -80,-80 80,80 0 0 1 80,-80 80,80 0 0 1 80,80 80,80 0 0 1 -80,80 z" />
            <path id="path1805" style="fill:#c89bd4;stroke-width:0.999997" d="m 960,960 a 60,60 0 0 1 -60,-60 60,60 0 0 1 60,-60 60,60 0 0 1 60,60 60,60 0 0 1 -60,60 z" />
            <path id="path1807" style="fill:#130c0c" transform="rotate(90,590,770)" d="m 800,400 a 80,80 0 0 1 -80,80 80,80 0 0 1 -80,-80 80,80 0 0 1 80,-80 80,80 0 0 1 80,80 z" mask="url(#mask1331)" />
        </g>
        <g id="g1002" transform="translate(0,-1400)" inkscape:export-xdpi="96" inkscape:export-ydpi="96">
            <path id="path1811" style="fill:#895197" d="m 720,820 a 80,80 0 0 1 80,80 80,80 0 0 1 -80,80 80,80 0 0 1 -80,-80 80,80 0 0 1 80,-80 z" />
            <path id="path1813" style="fill:#c89bd4;stroke-width:0.999997" d="m 720,840 a 60,60 0 0 1 60,60 60,60 0 0 1 -60,60 60,60 0 0 1 -60,-60 60,60 0 0 1 60,-60 z" />
            <path id="path1815" style="fill:#130c0c" transform="rotate(-90,850,530)" d="m 560,400 a 80,80 0 0 1 -80,80 80,80 0 0 1 -80,-80 80,80 0 0 1 80,-80 80,80 0 0 1 80,80 z" mask="url(#mask1335)" />
        </g>
        <g id="g992" transform="translate(0,-1400)" inkscape:export-xdpi="96" inkscape:export-ydpi="96">
            <path id="path1820" style="fill:#895197" d="m 1280,900 a 80,80 0 0 1 -80,80 80,80 0 0 1 -80,-80 80,80 0 0 1 80,-80 80,80 0 0 1 80,80 z" />
            <path id="path1822" style="fill:#c89bd4;stroke-width:0.999997" d="m 1260,900 a 60,60 0 0 1 -60,60 60,60 0 0 1 -60,-60 60,60 0 0 1 60,-60 60,60 0 0 1 60,60 z" />
            <path id="path1824" style="fill:#130c0c" transform="translate(720,500)" d="m 560,400 a 80,80 0 0 1 -80,80 80,80 0 0 1 -80,-80 80,80 0 0 1 80,-80 80,80 0 0 1 80,80 z" mask="url(#mask1335)" />
        </g>
        <g id="g987" transform="translate(0,-1400)" inkscape:export-xdpi="96" inkscape:export-ydpi="96">
            <path id="path1828" style="fill:#895197" d="m 1440,980 a 80,80 0 0 1 -80,-80 80,80 0 0 1 80,-80 80,80 0 0 1 80,80 80,80 0 0 1 -80,80 z" />
            <path id="path1830" style="fill:#c89bd4;stroke-width:0.999997" d="m 1440,960 a 60,60 0 0 1 -60,-60 60,60 0 0 1 60,-60 60,60 0 0 1 60,60 60,60 0 0 1 -60,60 z" />
            <path id="path1832" style="fill:#130c0c" transform="rotate(90,830,1010)" d="m 800,400 a 80,80 0 0 1 -80,80 80,80 0 0 1 -80,-80 80,80 0 0 1 80,-80 80,80 0 0 1 80,80 z" mask="url(#mask1331)" />
        </g>
        <g id="g1280" transform="translate(0,240)" inkscape:export-xdpi="96" inkscape:export-ydpi="96">
            <path id="rect1222" style="fill:#895197" d="m 440,1500 h 80 l 40,40 v 80 l -40,40 h -80 l -40,-40 v -80 z" sodipodi:nodetypes="ccccccccc" />
            <path id="path1944-3" style="fill:#c89bd4;stroke-width:0.999997" d="m 540,1580 a 60,60 0 0 1 -60,60 60,60 0 0 1 -60,-60 60,60 0 0 1 60,-60 60,60 0 0 1 60,60 z" mask="none" />
            <path id="path1337-6" style="fill:#130c0c" d="m 460,1500 h 40 v 20 c 0,29 14,40 40,40 h 20 v 40 h -20 c -51.25,0 -80,-25.5 -80,-80 z" sodipodi:nodetypes="ccccccccc" />
        </g>
        <g id="g1288" transform="rotate(180,600,1700)" inkscape:export-xdpi="96" inkscape:export-ydpi="96">
            <path id="path1282" style="fill:#895197" d="m 440,1500 h 80 l 40,40 v 80 l -40,40 h -80 l -40,-40 v -80 z" sodipodi:nodetypes="ccccccccc" />
            <path id="path1284" style="fill:#c89bd4;stroke-width:0.999997" d="m 540,1580 a 60,60 0 0 1 -60,60 60,60 0 0 1 -60,-60 60,60 0 0 1 60,-60 60,60 0 0 1 60,60 z" mask="none" />
            <path id="path1286" style="fill:#130c0c" d="m 460,1500 h 40 v 20 c 0,29 14,40 40,40 h 20 v 40 h -20 c -51.25,0 -80,-25.5 -80,-80 z" sodipodi:nodetypes="ccccccccc" />
        </g>
        <g id="g1296" transform="matrix(-1,0,0,1,1920,240)" inkscape:export-xdpi="96" inkscape:export-ydpi="96">
            <path id="path1290" style="fill:#895197" d="m 440,1500 h 80 l 40,40 v 80 l -40,40 h -80 l -40,-40 v -80 z" sodipodi:nodetypes="ccccccccc" />
            <path id="path1292" style="fill:#c89bd4;stroke-width:0.999997" d="m 540,1580 a 60,60 0 0 1 -60,60 60,60 0 0 1 -60,-60 60,60 0 0 1 60,-60 60,60 0 0 1 60,60 z" mask="none" />
            <path id="path1294" style="fill:#130c0c" d="m 460,1500 h 40 v 20 c 0,29 14,40 40,40 h 20 v 40 h -20 c -51.25,0 -80,-25.5 -80,-80 z" sodipodi:nodetypes="ccccccccc" />
        </g>
        <g id="g1304" transform="matrix(1,0,0,-1,720,3400)" inkscape:export-xdpi="96" inkscape:export-ydpi="96">
            <path id="path1298" style="fill:#895197" d="m 440,1500 h 80 l 40,40 v 80 l -40,40 h -80 l -40,-40 v -80 z" sodipodi:nodetypes="ccccccccc" />
            <path id="path1300" style="fill:#c89bd4;stroke-width:0.999997" d="m 540,1580 a 60,60 0 0 1 -60,60 60,60 0 0 1 -60,-60 60,60 0 0 1 60,-60 60,60 0 0 1 60,60 z" mask="none" />
            <path id="path1302" style="fill:#130c0c" d="m 460,1500 h 40 v 20 c 0,29 14,40 40,40 h 20 v 40 h -20 c -51.25,0 -80,-25.5 -80,-80 z" sodipodi:nodetypes="ccccccccc" />
        </g>
        <g id="g1312" transform="rotate(-90,960,1820)" inkscape:export-xdpi="96" inkscape:export-ydpi="96">
            <path id="path1306" style="fill:#895197" d="m 440,1500 h 80 l 40,40 v 80 l -40,40 h -80 l -40,-40 v -80 z" sodipodi:nodetypes="ccccccccc" />
            <path id="path1308" style="fill:#c89bd4;stroke-width:0.999997" d="m 540,1580 a 60,60 0 0 1 -60,60 60,60 0 0 1 -60,-60 60,60 0 0 1 60,-60 60,60 0 0 1 60,60 z" mask="none" />
            <path id="path1310" style="fill:#130c0c" d="m 460,1500 h 40 v 20 c 0,29 14,40 40,40 h 20 v 40 h -20 c -51.25,0 -80,-25.5 -80,-80 z" sodipodi:nodetypes="ccccccccc" />
        </g>
        <g id="g1320" transform="matrix(0,-1,-1,0,2780,2780)" inkscape:export-xdpi="96" inkscape:export-ydpi="96">
            <path id="path1314" style="fill:#895197" d="m 440,1500 h 80 l 40,40 v 80 l -40,40 h -80 l -40,-40 v -80 z" sodipodi:nodetypes="ccccccccc" />
            <path id="path1316" style="fill:#c89bd4;stroke-width:0.999997" d="m 540,1580 a 60,60 0 0 1 -60,60 60,60 0 0 1 -60,-60 60,60 0 0 1 60,-60 60,60 0 0 1 60,60 z" mask="none" />
            <path id="path1318" style="fill:#130c0c" d="m 460,1500 h 40 v 20 c 0,29 14,40 40,40 h 20 v 40 h -20 c -51.25,0 -80,-25.5 -80,-80 z" sodipodi:nodetypes="ccccccccc" />
        </g>
        <g id="g1328" transform="rotate(-90,840,1460)" inkscape:export-xdpi="96" inkscape:export-ydpi="96">
            <path id="path1322" style="fill:#895197" d="m 440,1500 h 80 l 40,40 v 80 l -40,40 h -80 l -40,-40 v -80 z" sodipodi:nodetypes="ccccccccc" />
            <path id="path1324" style="fill:#c89bd4;stroke-width:0.999997" d="m 540,1580 a 60,60 0 0 1 -60,60 60,60 0 0 1 -60,-60 60,60 0 0 1 60,-60 60,60 0 0 1 60,60 z" mask="none" />
            <path id="path1330" style="fill:#130c0c;stroke-width:1px" d="m 500,1660 h -40 v -160 h 40 z" />
        </g>
        <g id="g1338" transform="rotate(-90,960,1580)" inkscape:export-xdpi="96" inkscape:export-ydpi="96">
            <path id="path1332" style="fill:#895197" d="m 440,1500 h 80 l 40,40 v 80 l -40,40 h -80 l -40,-40 v -80 z" sodipodi:nodetypes="ccccccccc" />
            <path id="path1334" style="fill:#c89bd4;stroke-width:0.999997" d="m 540,1580 a 60,60 0 0 1 -60,60 60,60 0 0 1 -60,-60 60,60 0 0 1 60,-60 60,60 0 0 1 60,60 z" mask="none" />
            <path id="path1336" style="fill:#130c0c;stroke-width:1px" d="m 500,1660 h -40 v -160 h 40 z" />
        </g>
        <g id="g1346" transform="rotate(180,600,1820)" inkscape:export-xdpi="96" inkscape:export-ydpi="96">
            <path id="path1340" style="fill:#895197" d="m 440,1500 h 80 l 40,40 v 80 l -40,40 h -80 l -40,-40 v -80 z" sodipodi:nodetypes="ccccccccc" />
            <path id="path1342" style="fill:#c89bd4;stroke-width:0.999997" d="m 540,1580 a 60,60 0 0 1 -60,60 60,60 0 0 1 -60,-60 60,60 0 0 1 60,-60 60,60 0 0 1 60,60 z" mask="none" />
            <path id="path1344" style="fill:#130c0c;stroke-width:1px" d="m 500,1660 h -40 v -160 h 40 z" />
        </g>
        <g id="g1354" transform="rotate(180,480,1820)" inkscape:export-xdpi="96" inkscape:export-ydpi="96">
            <path id="path1348" style="fill:#895197" d="m 440,1500 h 80 l 40,40 v 80 l -40,40 h -80 l -40,-40 v -80 z" sodipodi:nodetypes="ccccccccc" />
            <path id="path1350" style="fill:#c89bd4;stroke-width:0.999997" d="m 540,1580 a 60,60 0 0 1 -60,60 60,60 0 0 1 -60,-60 60,60 0 0 1 60,-60 60,60 0 0 1 60,60 z" mask="none" />
            <path id="path1352" style="fill:#130c0c;stroke-width:1px" d="m 500,1660 h -40 v -160 h 40 z" />
        </g>
        <g id="g1362" transform="rotate(180,840,1820)" inkscape:export-xdpi="96" inkscape:export-ydpi="96">
            <path id="path1356" style="fill:#895197" d="m 440,1500 h 80 l 40,40 v 80 l -40,40 h -80 l -40,-40 v -80 z" sodipodi:nodetypes="ccccccccc" />
            <path id="path1358" style="fill:#c89bd4;stroke-width:0.999997" d="m 540,1580 a 60,60 0 0 1 -60,60 60,60 0 0 1 -60,-60 60,60 0 0 1 60,-60 60,60 0 0 1 60,60 z" mask="none" />
            <path id="path1360" style="fill:#130c0c;stroke-width:1px" d="m 500,1660 h -40 v -160 h 40 z" />
        </g>
        <g id="g1370" transform="rotate(180,960,1820)" inkscape:export-xdpi="96" inkscape:export-ydpi="96">
            <path id="path1364" style="fill:#895197" d="m 440,1500 h 80 l 40,40 v 80 l -40,40 h -80 l -40,-40 v -80 z" sodipodi:nodetypes="ccccccccc" />
            <path id="path1366" style="fill:#c89bd4;stroke-width:0.999997" d="m 540,1580 a 60,60 0 0 1 -60,60 60,60 0 0 1 -60,-60 60,60 0 0 1 60,-60 60,60 0 0 1 60,60 z" mask="none" />
            <path id="path1368" style="fill:#130c0c;stroke-width:1px" d="m 500,1660 h -40 v -160 h 40 z" />
        </g>
        <g id="g1378" transform="rotate(-90,840,1940)" inkscape:export-xdpi="96" inkscape:export-ydpi="96">
            <path id="path1372" style="fill:#895197" d="m 440,1500 h 80 l 40,40 v 80 l -40,40 h -80 l -40,-40 v -80 z" sodipodi:nodetypes="ccccccccc" />
            <path id="path1374" style="fill:#c89bd4;stroke-width:0.999997" d="m 540,1580 a 60,60 0 0 1 -60,60 60,60 0 0 1 -60,-60 60,60 0 0 1 60,-60 60,60 0 0 1 60,60 z" mask="none" />
            <path id="path1376" style="fill:#130c0c;stroke-width:1px" d="m 500,1660 h -40 v -160 h 40 z" />
        </g>
        <g id="g1386" transform="rotate(-90,1320,1460)" inkscape:export-xdpi="96" inkscape:export-ydpi="96">
            <path id="path1380" style="fill:#895197" d="m 440,1500 h 80 l 40,40 v 80 l -40,40 h -80 l -40,-40 v -80 z" sodipodi:nodetypes="ccccccccc" />
            <path id="path1382" style="fill:#c89bd4;stroke-width:0.999997" d="m 540,1580 a 60,60 0 0 1 -60,60 60,60 0 0 1 -60,-60 60,60 0 0 1 60,-60 60,60 0 0 1 60,60 z" mask="none" />
            <path id="path1384" style="fill:#130c0c;stroke-width:1px" d="m 500,1660 h -40 v -160 h 40 z" />
        </g>
        <g id="g1394" transform="rotate(-90,1080,1700)" inkscape:export-xdpi="96" inkscape:export-ydpi="96">
            <path id="path1388" style="fill:#895197" d="m 440,1500 h 80 l 40,40 v 80 l -40,40 h -80 l -40,-40 v -80 z" sodipodi:nodetypes="ccccccccc" />
            <path id="path1390" style="fill:#c89bd4;stroke-width:0.999997" d="m 540,1580 a 60,60 0 0 1 -60,60 60,60 0 0 1 -60,-60 60,60 0 0 1 60,-60 60,60 0 0 1 60,60 z" mask="none" />
            <path id="path1392" style="fill:#130c0c;stroke-width:1px" d="m 500,1660 h -40 v -160 h 40 z" />
        </g>
        <g id="g1410" transform="rotate(-90,130,190)" inkscape:export-xdpi="96" inkscape:export-ydpi="96">
            <path id="path1404" style="fill:#895197" d="m 560,420 a 80,80 0 0 1 -80,80 80,80 0 0 1 -80,-80 80,80 0 0 1 80,-80 80,80 0 0 1 80,80 z" />
            <path id="path1406" style="fill:#c89bd4;stroke-width:0.999997" d="m 540,420 a 60,60 0 0 1 -60,60 60,60 0 0 1 -60,-60 60,60 0 0 1 60,-60 60,60 0 0 1 60,60 z" />
            <path id="path1408" style="fill:#130c0c" transform="translate(0,20)" d="m 560,400 a 80,80 0 0 1 -80,80 80,80 0 0 1 -80,-80 80,80 0 0 1 80,-80 80,80 0 0 1 80,80 z" mask="url(#mask1335)" />
        </g>
        <g id="g1426" transform="translate(120,-580)" inkscape:export-xdpi="96" inkscape:export-ydpi="96">
            <path id="path1420" style="fill:#895197" d="m 560,420 a 80,80 0 0 1 -80,80 80,80 0 0 1 -80,-80 80,80 0 0 1 80,-80 80,80 0 0 1 80,80 z" />
            <path id="path1422" style="fill:#c89bd4;stroke-width:0.999997" d="m 540,420 a 60,60 0 0 1 -60,60 60,60 0 0 1 -60,-60 60,60 0 0 1 60,-60 60,60 0 0 1 60,60 z" />
            <path id="path1424" style="fill:#130c0c" transform="translate(0,20)" d="m 560,400 a 80,80 0 0 1 -80,80 80,80 0 0 1 -80,-80 80,80 0 0 1 80,-80 80,80 0 0 1 80,80 z" mask="url(#mask1335)" />
        </g>
        <g id="g1442" transform="rotate(90,950,310)" inkscape:export-xdpi="96" inkscape:export-ydpi="96">
            <path id="path1436" style="fill:#895197" d="m 560,420 a 80,80 0 0 1 -80,80 80,80 0 0 1 -80,-80 80,80 0 0 1 80,-80 80,80 0 0 1 80,80 z" />
            <path id="path1438" style="fill:#c89bd4;stroke-width:0.999997" d="m 540,420 a 60,60 0 0 1 -60,60 60,60 0 0 1 -60,-60 60,60 0 0 1 60,-60 60,60 0 0 1 60,60 z" />
            <path id="path1440" style="fill:#130c0c" transform="translate(0,20)" d="m 560,400 a 80,80 0 0 1 -80,80 80,80 0 0 1 -80,-80 80,80 0 0 1 80,-80 80,80 0 0 1 80,80 z" mask="url(#mask1335)" />
        </g>
        <g id="g1458" transform="rotate(180,780,130)" inkscape:export-xdpi="96" inkscape:export-ydpi="96">
            <path id="path1452" style="fill:#895197" d="m 560,420 a 80,80 0 0 1 -80,80 80,80 0 0 1 -80,-80 80,80 0 0 1 80,-80 80,80 0 0 1 80,80 z" />
            <path id="path1454" style="fill:#c89bd4;stroke-width:0.999997" d="m 540,420 a 60,60 0 0 1 -60,60 60,60 0 0 1 -60,-60 60,60 0 0 1 60,-60 60,60 0 0 1 60,60 z" />
            <path id="path1456" style="fill:#130c0c" transform="translate(0,20)" d="m 560,400 a 80,80 0 0 1 -80,80 80,80 0 0 1 -80,-80 80,80 0 0 1 80,-80 80,80 0 0 1 80,80 z" mask="url(#mask1335)" />
        </g>
        <g id="g1466" transform="translate(360,-580)" inkscape:export-xdpi="96" inkscape:export-ydpi="96">
            <path id="path1460" style="fill:#895197" d="m 960,500 a 80,80 0 0 1 -80,-80 80,80 0 0 1 80,-80 80,80 0 0 1 80,80 80,80 0 0 1 -80,80 z" />
            <path id="path1462" style="fill:#c89bd4;stroke-width:0.999997" d="m 960,480 a 60,60 0 0 1 -60,-60 60,60 0 0 1 60,-60 60,60 0 0 1 60,60 60,60 0 0 1 -60,60 z" />
            <path id="path1464" style="fill:#130c0c" transform="rotate(90,830,530)" d="m 800,400 a 80,80 0 0 1 -80,80 80,80 0 0 1 -80,-80 80,80 0 0 1 80,-80 80,80 0 0 1 80,80 z" mask="url(#mask1331)" />
        </g>
        <g id="g1474" transform="rotate(90,1550,430)" inkscape:export-xdpi="96" inkscape:export-ydpi="96">
            <path id="path1468" style="fill:#895197" d="m 960,500 a 80,80 0 0 1 -80,-80 80,80 0 0 1 80,-80 80,80 0 0 1 80,80 80,80 0 0 1 -80,80 z" />
            <path id="path1470" style="fill:#c89bd4;stroke-width:0.999997" d="m 960,480 a 60,60 0 0 1 -60,-60 60,60 0 0 1 60,-60 60,60 0 0 1 60,60 60,60 0 0 1 -60,60 z" />
            <path id="path1472" style="fill:#130c0c" transform="rotate(90,830,530)" d="m 800,400 a 80,80 0 0 1 -80,80 80,80 0 0 1 -80,-80 80,80 0 0 1 80,-80 80,80 0 0 1 80,80 z" mask="url(#mask1331)" />
        </g>
        <g id="g1402" transform="rotate(-90,250,1470)">
            <path id="path1396" style="fill:#895197" d="m 440,1500 h 80 l 40,40 v 80 l -40,40 h -80 l -40,-40 v -80 z" sodipodi:nodetypes="ccccccccc" />
            <path id="path1398" style="fill:#c89bd4;stroke-width:0.999997" d="m 540,1580 a 60,60 0 0 1 -60,60 60,60 0 0 1 -60,-60 60,60 0 0 1 60,-60 60,60 0 0 1 60,60 z" mask="none" />
            <path id="path1400" style="fill:#130c0c" d="m 460,1500 h 40 v 20 c 0,29 14,40 40,40 h 20 v 40 h -20 c -51.25,0 -80,-25.5 -80,-80 z" sodipodi:nodetypes="ccccccccc" />
        </g>
        <g id="g1418" transform="translate(120,-340)">
            <path id="path1412" style="fill:#895197" d="m 440,1500 h 80 l 40,40 v 80 l -40,40 h -80 l -40,-40 v -80 z" sodipodi:nodetypes="ccccccccc" />
            <path id="path1414" style="fill:#c89bd4;stroke-width:0.999997" d="m 540,1580 a 60,60 0 0 1 -60,60 60,60 0 0 1 -60,-60 60,60 0 0 1 60,-60 60,60 0 0 1 60,60 z" mask="none" />
            <path id="path1416" style="fill:#130c0c" d="m 460,1500 h 40 v 20 c 0,29 14,40 40,40 h 20 v 40 h -20 c -51.25,0 -80,-25.5 -80,-80 z" sodipodi:nodetypes="ccccccccc" />
        </g>
        <g id="g1434" transform="rotate(90,830,1590)">
            <path id="path1428" style="fill:#895197" d="m 440,1500 h 80 l 40,40 v 80 l -40,40 h -80 l -40,-40 v -80 z" sodipodi:nodetypes="ccccccccc" />
            <path id="path1430" style="fill:#c89bd4;stroke-width:0.999997" d="m 540,1580 a 60,60 0 0 1 -60,60 60,60 0 0 1 -60,-60 60,60 0 0 1 60,-60 60,60 0 0 1 60,60 z" mask="none" />
            <path id="path1432" style="fill:#130c0c" d="m 460,1500 h 40 v 20 c 0,29 14,40 40,40 h 20 v 40 h -20 c -51.25,0 -80,-25.5 -80,-80 z" sodipodi:nodetypes="ccccccccc" />
        </g>
        <g id="g1450" transform="rotate(180,780,1410)">
            <path id="path1444" style="fill:#895197" d="m 440,1500 h 80 l 40,40 v 80 l -40,40 h -80 l -40,-40 v -80 z" sodipodi:nodetypes="ccccccccc" />
            <path id="path1446" style="fill:#c89bd4;stroke-width:0.999997" d="m 540,1580 a 60,60 0 0 1 -60,60 60,60 0 0 1 -60,-60 60,60 0 0 1 60,-60 60,60 0 0 1 60,60 z" mask="none" />
            <path id="path1448" style="fill:#130c0c" d="m 460,1500 h 40 v 20 c 0,29 14,40 40,40 h 20 v 40 h -20 c -51.25,0 -80,-25.5 -80,-80 z" sodipodi:nodetypes="ccccccccc" />
        </g>
        <g id="g1482" transform="rotate(-90,730,990)">
            <path id="path1476" style="fill:#895197" d="m 440,1500 h 80 l 40,40 v 80 l -40,40 h -80 l -40,-40 v -80 z" sodipodi:nodetypes="ccccccccc" />
            <path id="path1478" style="fill:#c89bd4;stroke-width:0.999997" d="m 540,1580 a 60,60 0 0 1 -60,60 60,60 0 0 1 -60,-60 60,60 0 0 1 60,-60 60,60 0 0 1 60,60 z" mask="none" />
            <path id="path1480" style="fill:#130c0c;stroke-width:1px" d="m 500,1660 h -40 v -160 h 40 z" />
        </g>
        <g id="g1490" transform="translate(1080,-340)">
            <path id="path1484" style="fill:#895197" d="m 440,1500 h 80 l 40,40 v 80 l -40,40 h -80 l -40,-40 v -80 z" sodipodi:nodetypes="ccccccccc" />
            <path id="path1486" style="fill:#c89bd4;stroke-width:0.999997" d="m 540,1580 a 60,60 0 0 1 -60,60 60,60 0 0 1 -60,-60 60,60 0 0 1 60,-60 60,60 0 0 1 60,60 z" mask="none" />
            <path id="path1488" style="fill:#130c0c;stroke-width:1px" d="m 500,1660 h -40 v -160 h 40 z" />
        </g>
        <g id="g2599" transform="translate(0,1400)" inkscape:export-xdpi="96" inkscape:export-ydpi="96">
            <g id="g2533" style="fill:#895197" transform="translate(0,-1380)">
                <rect id="rect2517" width="80" height="780" x="440" y="280" rx="0" ry="0" />
                <rect id="rect2519" width="80" height="780" x="680" y="280" rx="0" ry="0" />
                <rect id="rect2521" width="80" height="780" x="920" y="280" rx="0" ry="0" />
                <rect id="rect2523" width="80" height="780" x="1160" y="280" rx="0" ry="0" />
                <rect id="rect2525" width="80" height="780" x="1400" y="280" rx="0" ry="0" />
                <rect id="rect2527" width="80" height="1200" transform="rotate(90)" x="360" y="-1560" rx="0" ry="0" />
                <rect id="rect2529" width="80" height="1200" transform="rotate(90)" x="600" y="-1560" rx="0" ry="0" />
                <rect id="rect2531" width="80" height="1200" transform="rotate(90)" x="840" y="-1560" rx="0" ry="0" />
            </g>
            <g id="g2579">
                <path id="path2535" style="fill:#895197" d="m 580,-1300 h -200 v 200 h 80 v -19.5 l -60,-0.5 v -160 h 160 v 160 l -60,1 v 19 h 80 z" sodipodi:nodetypes="ccccccccccccc" />
                <path id="path2537" style="fill:#130c0c;stroke-width:1px" d="m 400,-1280 h 160 v 160 h -60 v 20 h -40 v -20 h -60 z" sodipodi:nodetypes="ccccccccc" />
                <path id="path2539" style="fill:#895197" d="m 820,-1300 h -200 v 200 h 80 v -19.5 l -60,-0.5 v -160 h 160 v 160 l -60,1 v 19 h 80 z" sodipodi:nodetypes="ccccccccccccc" />
                <path id="path2541" style="fill:#130c0c;stroke-width:1px" d="m 640,-1280 h 160 v 160 h -60 v 20 h -40 v -20 h -60 z" sodipodi:nodetypes="ccccccccc" />
                <path id="path2543" style="fill:#895197" d="m 1060,-1300 h -200 v 200 h 80 v -19.5 l -60,-0.5 v -160 h 160 v 160 l -60,1 v 19 h 80 z" sodipodi:nodetypes="ccccccccccccc" />
                <path id="path2545" style="fill:#130c0c;stroke-width:1px" d="m 880,-1280 h 160 v 160 h -60 v 20 h -40 v -20 h -60 z" sodipodi:nodetypes="ccccccccc" />
                <path id="path2547" style="fill:#895197" d="m 1300,-1300 h -200 v 200 h 80 v -19.5 l -60,-0.5 v -160 h 160 v 160 l -60,1 v 19 h 80 z" sodipodi:nodetypes="ccccccccccccc" />
                <path id="path2549" style="fill:#130c0c;stroke-width:1px" d="m 1120,-1280 h 160 v 160 h -60 v 20 h -40 v -20 h -60 z" sodipodi:nodetypes="ccccccccc" />
                <path id="path2551" style="fill:#895197" d="m 1540,-1300 h -200 v 200 h 80 v -19.5 l -60,-0.5 v -160 h 160 v 160 l -60,1 v 19 h 80 z" sodipodi:nodetypes="ccccccccccccc" />
                <path id="path2553" style="fill:#130c0c;stroke-width:1px" d="m 1360,-1280 h 160 v 160 h -60 v 20 h -40 v -20 h -60 z" sodipodi:nodetypes="ccccccccc" />
                <path id="path2555" style="fill:#895197" d="m 1760,-880 v -200 h -200 v 80 h 19.5 l 0.5,-60 h 160 v 160 h -160 l -1,-60 h -19 v 80 z" sodipodi:nodetypes="ccccccccccccc" />
                <path id="path2557" style="fill:#130c0c;stroke-width:1px" d="m 1740,-1060 v 160 h -160 v -60 h -20 v -40 h 20 v -60 z" sodipodi:nodetypes="ccccccccc" />
                <path id="path2559" style="fill:#895197" d="m 1760,-640 v -200 h -200 v 80 h 19.5 l 0.5,-60 h 160 v 160 h -160 l -1,-60 h -19 v 80 z" sodipodi:nodetypes="ccccccccccccc" />
                <path id="path2561" style="fill:#130c0c;stroke-width:1px" d="m 1740,-820 v 160 h -160 v -60 h -20 v -40 h 20 v -60 z" sodipodi:nodetypes="ccccccccc" />
                <path id="path2563" style="fill:#895197" d="m 1760,-400 v -200 h -200 v 80 h 19.5 l 0.5,-60 h 160 v 160 h -160 l -1,-60 h -19 v 80 z" sodipodi:nodetypes="ccccccccccccc" />
                <path id="path2565" style="fill:#130c0c;stroke-width:1px" d="m 1740,-580 v 160 h -160 v -60 h -20 v -40 h 20 v -60 z" sodipodi:nodetypes="ccccccccc" />
                <path id="path2567" style="fill:#895197" d="m 160,-880 v -200 h 200 v 80 h -19.5 l -0.5,-60 h -160 v 160 h 160 l 1,-60 h 19 v 80 z" sodipodi:nodetypes="ccccccccccccc" />
                <path id="path2569" style="fill:#130c0c;stroke-width:1px" d="m 180,-1060 v 160 h 160 v -60 h 20 v -40 h -20 v -60 z" sodipodi:nodetypes="ccccccccc" />
                <path id="path2571" style="fill:#895197" d="m 160,-640 v -200 h 200 v 80 h -19.5 l -0.5,-60 h -160 v 160 h 160 l 1,-60 h 19 v 80 z" sodipodi:nodetypes="ccccccccccccc" />
                <path id="path2573" style="fill:#130c0c;stroke-width:1px" d="m 180,-820 v 160 h 160 v -60 h 20 v -40 h -20 v -60 z" sodipodi:nodetypes="ccccccccc" />
                <path id="path2575" style="fill:#895197" d="m 160,-400 v -200 h 200 v 80 h -19.5 l -0.5,-60 h -160 v 160 h 160 l 1,-60 h 19 v 80 z" sodipodi:nodetypes="ccccccccccccc" />
                <path id="path2577" style="fill:#130c0c;stroke-width:1px" d="m 180,-580 v 160 h 160 v -60 h 20 v -40 h -20 v -60 z" sodipodi:nodetypes="ccccccccc" />
            </g>
            <g id="g2597" style="fill:#130c0c" transform="translate(0,-1380)">
                <rect id="rect2581" width="40" height="780" x="460" y="280" rx="0" ry="0" />
                <rect id="rect2583" width="40" height="780" x="700" y="280" rx="1.5258789e-05" ry="1.5258788e-05" />
                <rect id="rect2585" width="40" height="780" x="940" y="280" rx="1.5258789e-05" ry="1.5258788e-05" />
                <rect id="rect2587" width="40" height="780" x="1180" y="280" rx="0" ry="0" />
                <rect id="rect2589" width="40" height="780" x="1420" y="280" rx="1.5258789e-05" ry="1.5258788e-05" />
                <rect id="rect2591" width="40" height="1200" transform="rotate(90)" x="860" y="-1560" rx="0" ry="0" />
                <rect id="rect2593" width="40" height="1200" transform="rotate(90)" x="620" y="-1560" rx="0" ry="0" />
                <rect id="rect2595" width="40" height="1200" transform="rotate(90)" x="380" y="-1560" rx="0" ry="0" />
            </g>
        </g>
        <circle id="circle2513" style="fill:#e94949;stroke-width:0.999996" r="40" cx="480" cy="-1200" inkscape:export-xdpi="96" inkscape:export-ydpi="96" />
        <circle id="circle2373" style="fill:#e94949;stroke-width:0.999996" r="40" cx="480" cy="1600" inkscape:export-xdpi="96" inkscape:export-ydpi="96" />
    </g>
</svg>
